PathFileType	4	(X/Y/Z)	C:\Users\T490\OneDrive\Desktop\110_Internship_Tasks\Sprint GSG Position Analysis\results\sports2d_output\sprint_video_Sports2D\sprint_video_Sports2D_px_person00.trc
DataRate	CameraRate	NumFrames	NumMarkers	Units	OrigDataRate	OrigDataStartFrame	OrigNumFrames
25.0	25.0	4	22	m	25.0	279	559
Frame#	Time	Hip			RHip			RKnee			RAnkle			RBigToe			RSmallToe			RHeel			LHip			LKnee			LAnkle			LBigToe			LSmallToe			LHeel			Neck			Head			Nose			RShoulder			RElbow			RWrist			LShoulder			LElbow			LWrist			
		X1	Y1	Z1	X2	Y2	Z2	X3	Y3	Z3	X4	Y4	Z4	X5	Y5	Z5	X6	Y6	Z6	X7	Y7	Z7	X8	Y8	Z8	X9	Y9	Z9	X10	Y10	Z10	X11	Y11	Z11	X12	Y12	Z12	X13	Y13	Z13	X14	Y14	Z14	X15	Y15	Z15	X16	Y16	Z16	X17	Y17	Z17	X18	Y18	Z18	X19	Y19	Z19	X20	Y20	Z20	X21	Y21	Z21	X22	Y22	Z22
279	11.18	1087.0463216055955	582.7525515101773	0.0	1066.1337266654073	584.3247411159617	0.0	991.7595728703229	610.9288584160626	0.0	1085.6769110158023	647.4442128406768	0.0	1142.3624062943766	680.145848688889	0.0	1153.1598755807208	682.0626009592777	0.0	1149.4158070913973	622.4587735457285	0.0	1098.8316831829197	584.2217541144638	0.0	1048.3036695122164	686.2522607970976	0.0	1150.5682913918831	646.113305115026	0.0	1167.0511565555923	689.3294963390882	0.0	1172.2427966808177	685.1122152293934	0.0	1162.9205506641194	633.1311124959061	0.0	994.3801816113813	481.7177064694904	0.0	945.8631583252379	437.42607169503435	0.0	953.0059712707135	472.0161903347446	0.0	997.6347719544835	510.4808496907513	0.0	993.877106893015	586.2199202677363	0.0	977.3267969424641	656.130176110997	0.0	1013.1103001509218	484.3915915590975	0.0	1069.5404993308287	532.1140171859818	0.0	1062.5570314006277	599.513676101306	0.0
280	11.220071684587813	1086.436082796139	582.0755368669504	0.0	1066.1145637283082	583.8047243222532	0.0	991.4377861828351	610.7689628112198	0.0	1085.2486221119584	646.9569893509591	0.0	1099.4105439791238	676.922998115419	0.0	1150.7150267380891	680.9973118093379	0.0	1148.201937514086	622.088449190293	0.0	1098.636472522006	584.1647361200693	0.0	1048.1331021018807	686.6708440740979	0.0	1150.612539776207	646.254676656955	0.0	1168.6077460519646	689.5597986496574	0.0	1173.1552462936968	685.2472915909117	0.0	1162.2913986390354	632.8976658392811	0.0	994.0595788580035	482.3167313661715	0.0	944.0847314965528	439.78300273336947	0.0	952.6709427278352	474.8919786835502	0.0	998.0107609912404	510.3181840266268	0.0	994.1604484188458	586.2199644592528	0.0	977.4053339785728	656.1781835802317	0.0	1012.8928660821014	484.59873137557327	0.0	1066.666016596016	536.9911859911829	0.0	1056.231541658247	602.0695683957065	0.0
281	11.260143369175628	1087.7676215219633	582.1101565806441	0.0	1069.5187633846626	583.9758726583715	0.0	992.5200535487046	610.6790022496758	0.0	1084.6719286864293	646.8959326886464	0.0	1055.2790782521117	673.1282397480954	0.0	1148.487433001153	680.1714474521522	0.0	1148.3414150192993	622.1217228703508	0.0	1098.6942567749895	584.2476326917555	0.0	1047.4242517090117	686.2097689854687	0.0	1150.6957845359068	646.2841922913589	0.0	1171.5511217461385	689.7825251687815	0.0	1174.8756614977876	684.4617149366629	0.0	1162.4259909225646	633.5820238114204	0.0	993.583843140734	483.0193073803691	0.0	940.7940498170974	443.01147982751513	0.0	952.2130127185109	477.9706096513993	0.0	998.3838735827248	510.14549864515925	0.0	994.4869018152649	586.6665364604324	0.0	977.3231522899737	656.2908997204356	0.0	1012.9839785324937	485.69397202383385	0.0	1061.7167134832816	543.451940343527	0.0	1049.7151453954332	604.5866482799571	0.0
282	11.300215053763441	1090.1025329889771	582.4484176089888	0.0	1075.3828056545492	584.6284290377265	0.0	995.3915151662366	610.6387397452604	0.0	1085.4357777903442	647.6761867922468	0.0	1036.5278248952677	671.8942320424441	0.0	1149.0002001900311	679.3428127215307	0.0	1149.6038766702384	623.3192915810523	0.0	1098.9691469845404	584.1764181660828	0.0	1046.7808194663924	685.1205046917233	0.0	1150.4928251477418	646.9607754512276	0.0	1172.4888940508679	689.831505325436	0.0	1175.138249229322	683.4025358631741	0.0	1162.7594084796476	634.5212571315973	0.0	993.1148933011901	484.385297690593	0.0	937.206461494251	446.3793890435426	0.0	951.9445248827917	481.20104061919426	0.0	998.4615086654364	510.6501360452152	0.0	994.5994099369786	587.8846079355847	0.0	976.8086176350072	657.1157874666691	0.0	1013.4815420155204	487.4840024924315	0.0	1053.6971641736723	551.8356473927531	0.0	1040.2244423344675	606.3731358943355	0.0
